<svg width="25" height="24" viewBox="0 0 25 24" fill="none" xmlns="http://www.w3.org/2000/svg">
<path d="M21.8456 7.53798L17.9643 3.65673C17.5424 3.2348 16.9701 2.99777 16.3734 2.99777C15.7767 2.99777 15.2044 3.2348 14.7825 3.65673L3.65809 14.7811C3.23617 15.2031 2.99914 15.7753 2.99914 16.372C2.99914 16.9688 3.23617 17.541 3.65809 17.963L6.47622 20.7811C6.54615 20.851 6.62919 20.9063 6.72057 20.9439C6.81196 20.9816 6.90988 21.0008 7.00872 21.0005H21.0018C21.2008 21.0005 21.3915 20.9215 21.5322 20.7808C21.6728 20.6402 21.7518 20.4494 21.7518 20.2505C21.7518 20.0516 21.6728 19.8608 21.5322 19.7201C21.3915 19.5795 21.2008 19.5005 21.0018 19.5005H13.0612L21.8456 10.7199C22.2675 10.2979 22.5046 9.72563 22.5046 9.12891C22.5046 8.5322 22.2675 7.95993 21.8456 7.53798ZM20.7834 9.65673L15.7518 14.6902L10.8122 9.75048L15.8456 4.71985C15.9152 4.65012 15.998 4.5948 16.089 4.55706C16.1801 4.51931 16.2777 4.49989 16.3762 4.49989C16.4748 4.49989 16.5724 4.51931 16.6634 4.55706C16.7545 4.5948 16.8372 4.65012 16.9068 4.71985L20.7862 8.59923C20.9268 8.73987 21.0057 8.93056 21.0057 9.12938C21.0057 9.32821 20.9268 9.5189 20.7862 9.65954L20.7834 9.65673Z" fill="black"/>
</svg>
