<svg width="17" height="18" viewBox="0 0 17 18" fill="none" xmlns="http://www.w3.org/2000/svg">
<path d="M16.75 1.5V16.5C16.75 16.8978 16.592 17.2794 16.3107 17.5607C16.0294 17.842 15.6478 18 15.25 18H11.5C11.1022 18 10.7206 17.842 10.4393 17.5607C10.158 17.2794 10 16.8978 10 16.5V1.5C10 1.10218 10.158 0.720644 10.4393 0.43934C10.7206 0.158035 11.1022 0 11.5 0H15.25C15.6478 0 16.0294 0.158035 16.3107 0.43934C16.592 0.720644 16.75 1.10218 16.75 1.5ZM5.5 0H1.75C1.35218 0 0.970644 0.158035 0.68934 0.43934C0.408035 0.720644 0.25 1.10218 0.25 1.5V16.5C0.25 16.8978 0.408035 17.2794 0.68934 17.5607C0.970644 17.842 1.35218 18 1.75 18H5.5C5.89782 18 6.27936 17.842 6.56066 17.5607C6.84196 17.2794 7 16.8978 7 16.5V1.5C7 1.10218 6.84196 0.720644 6.56066 0.43934C6.27936 0.158035 5.89782 0 5.5 0Z" fill="black"/>
</svg>
