<svg width="17" height="20" viewBox="0 0 17 20" fill="none" xmlns="http://www.w3.org/2000/svg">
<path d="M17 10C17.0006 10.2546 16.9353 10.5051 16.8105 10.7271C16.6856 10.949 16.5055 11.1349 16.2875 11.2666L2.78 19.5297C2.55227 19.6691 2.29144 19.7453 2.02445 19.7502C1.75746 19.7552 1.49399 19.6887 1.26125 19.5578C1.03073 19.4289 0.838696 19.241 0.704904 19.0132C0.571111 18.7855 0.500385 18.5263 0.5 18.2622V1.73781C0.500385 1.4737 0.571111 1.21447 0.704904 0.986754C0.838696 0.759042 1.03073 0.571077 1.26125 0.442187C1.49399 0.311264 1.75746 0.244845 2.02445 0.249789C2.29144 0.254733 2.55227 0.330862 2.78 0.470312L16.2875 8.73344C16.5055 8.86513 16.6856 9.05099 16.8105 9.27293C16.9353 9.49487 17.0006 9.74535 17 10Z" fill="black"/>
</svg>
