<svg width="21" height="20" viewBox="0 0 21 20" fill="none" xmlns="http://www.w3.org/2000/svg">
<path d="M20.875 3.25V7.75C20.875 8.04837 20.7565 8.33452 20.5455 8.54549C20.3345 8.75647 20.0484 8.875 19.75 8.875H15.25C14.9516 8.875 14.6655 8.75647 14.4545 8.54549C14.2435 8.33452 14.125 8.04837 14.125 7.75C14.125 7.45163 14.2435 7.16548 14.4545 6.9545C14.6655 6.74353 14.9516 6.625 15.25 6.625H16.8531L15.0719 4.99563C15.0597 4.98438 15.0475 4.97312 15.0363 4.96094C14.2103 4.13552 13.1942 3.52574 12.0773 3.18526C10.9604 2.84477 9.77687 2.784 8.63095 3.00831C7.48502 3.23262 6.41179 3.73513 5.50568 4.47162C4.59957 5.2081 3.88835 6.156 3.4346 7.23191C2.98086 8.30781 2.79849 9.47874 2.90355 10.6417C3.00861 11.8046 3.39788 12.9239 4.0371 13.9011C4.67632 14.8782 5.5459 15.6833 6.56934 16.2455C7.59277 16.8077 8.73868 17.1097 9.90625 17.125H10C11.8187 17.1294 13.5693 16.4338 14.8891 15.1825C15.106 14.9775 15.3955 14.8671 15.6939 14.8755C15.9922 14.8839 16.275 15.0106 16.48 15.2275C16.685 15.4444 16.7954 15.7339 16.787 16.0323C16.7786 16.3306 16.6519 16.6134 16.435 16.8184C14.6977 18.4651 12.3937 19.3805 10 19.375H9.87156C8.33692 19.3534 6.83106 18.9553 5.4862 18.2157C4.14135 17.4762 2.99863 16.4177 2.15839 15.1334C1.31815 13.849 0.806095 12.378 0.667176 10.8495C0.528258 9.32099 0.766729 7.78177 1.36165 6.36697C1.95657 4.95216 2.88975 3.70506 4.07924 2.73516C5.26873 1.76526 6.67815 1.10222 8.18375 0.804279C9.68935 0.506333 11.2451 0.582587 12.7143 1.02635C14.1836 1.4701 15.5214 2.2678 16.6103 3.34938L18.625 5.1925V3.25C18.625 2.95163 18.7435 2.66548 18.9545 2.4545C19.1655 2.24353 19.4516 2.125 19.75 2.125C20.0484 2.125 20.3345 2.24353 20.5455 2.4545C20.7565 2.66548 20.875 2.95163 20.875 3.25Z" fill="black"/>
</svg>
