<svg width="34" height="32" viewBox="0 0 34 32" fill="none" xmlns="http://www.w3.org/2000/svg">
<path d="M27.0109 24.2925C27.1067 24.3854 27.1827 24.4957 27.2345 24.6171C27.2864 24.7385 27.3131 24.8686 27.3131 25C27.3131 25.1314 27.2864 25.2615 27.2345 25.3829C27.1827 25.5043 27.1067 25.6146 27.0109 25.7075C26.915 25.8004 26.8013 25.8741 26.6761 25.9244C26.5509 25.9747 26.4168 26.0006 26.2813 26.0006C26.1458 26.0006 26.0116 25.9747 25.8864 25.9244C25.7612 25.8741 25.6475 25.8004 25.5516 25.7075L17 17.4138L8.44836 25.7075C8.25486 25.8951 7.99241 26.0006 7.71875 26.0006C7.44509 26.0006 7.18265 25.8951 6.98914 25.7075C6.79564 25.5199 6.68693 25.2654 6.68693 25C6.68693 24.7346 6.79564 24.4801 6.98914 24.2925L15.5421 16L6.98914 7.7075C6.79564 7.51986 6.68693 7.26536 6.68693 7C6.68693 6.73464 6.79564 6.48014 6.98914 6.2925C7.18265 6.10486 7.44509 5.99944 7.71875 5.99944C7.99241 5.99944 8.25486 6.10486 8.44836 6.2925L17 14.5863L25.5516 6.2925C25.7451 6.10486 26.0076 5.99944 26.2813 5.99944C26.5549 5.99944 26.8174 6.10486 27.0109 6.2925C27.2044 6.48014 27.3131 6.73464 27.3131 7C27.3131 7.26536 27.2044 7.51986 27.0109 7.7075L18.4579 16L27.0109 24.2925Z" fill="black"/>
</svg>
